<?xml version="1.0" encoding="utf-8"?>
<!-- Generator: Adobe Illustrator 18.1.1, SVG Export Plug-In . SVG Version: 6.00 Build 0)  -->
<svg version="1.1" id="Layer_1" xmlns="http://www.w3.org/2000/svg" xmlns:xlink="http://www.w3.org/1999/xlink" x="0px" y="0px"
	 viewBox="0 0 125.1 21.4" enable-background="new 0 0 125.1 21.4" xml:space="preserve">
<g>
	<path d="M11.4,7h-0.9l-0.2-2.1C10,4.5,9.6,4.2,9,3.9C8.4,3.6,7.7,3.5,7,3.5C5.5,3.5,4.3,4,3.4,5.1C2.5,6.2,2.1,7.7,2.1,9.4v0.2
		c0,1.7,0.4,3.2,1.3,4.3c0.9,1.1,2,1.7,3.5,1.7c0.8,0,1.5-0.1,2.1-0.4c0.6-0.3,1.1-0.6,1.5-1l0.2-2.1h0.9v2.4
		c-0.4,0.6-1,1.1-1.8,1.5c-0.8,0.4-1.7,0.6-2.7,0.6c-1.7,0-3.1-0.6-4.2-1.9C1.5,13.2,1,11.6,1,9.6V9.4c0-2,0.5-3.7,1.6-4.9
		c1.1-1.3,2.5-1.9,4.3-1.9c1,0,1.9,0.2,2.7,0.6C10.4,3.5,11,4,11.4,4.6V7z"/>
	<path d="M23,7l-1,0.1L18,17.9c-0.3,0.7-0.6,1.3-1,1.7c-0.4,0.5-1,0.7-1.8,0.7c-0.1,0-0.3,0-0.5,0c-0.2,0-0.3-0.1-0.4-0.1l0.1-0.9
		c0.1,0,0.2,0,0.4,0c0.2,0,0.3,0,0.3,0c0.5,0,0.9-0.2,1.2-0.5c0.3-0.3,0.5-0.8,0.8-1.3l0.5-1.3l-3.6-9l-1-0.1V6.2h3.5V7l-1.2,0.1
		l2.4,6.4l0.4,1.2h0.1l2.7-7.6L19.6,7V6.2H23V7z"/>
	<path d="M26.7,6.2l0.1,1.7V8c0.3-0.6,0.7-1.1,1.2-1.5C28.5,6.2,29.1,6,29.8,6c0.1,0,0.3,0,0.4,0c0.1,0,0.2,0,0.3,0.1l-0.1,1
		l-0.8-0.1c-0.7,0-1.3,0.2-1.7,0.6c-0.4,0.4-0.8,0.9-1,1.6v6l1.5,0.1v0.8h-4.1v-0.8l1.5-0.1V7.2L24.2,7V6.2h1.5H26.7z"/>
	<path d="M36.2,16.4c-1.3,0-2.3-0.5-3.1-1.4c-0.8-0.9-1.2-2.1-1.2-3.5V11c0-1.4,0.4-2.6,1.2-3.6C33.9,6.5,34.9,6,36,6
		c1.2,0,2.2,0.4,2.9,1.2S40,9,40,10.3v0.9h-7.1v0.3c0,1.1,0.3,2.1,0.9,2.8c0.6,0.8,1.4,1.1,2.4,1.1c0.7,0,1.3-0.1,1.8-0.3
		c0.5-0.2,0.9-0.5,1.3-0.8l0.5,0.8c-0.4,0.4-0.9,0.7-1.4,0.9C37.7,16.3,37,16.4,36.2,16.4z M36,7c-0.8,0-1.5,0.3-2.1,0.9
		c-0.6,0.6-0.9,1.4-1,2.4l0,0h5.9V10c0-0.9-0.3-1.6-0.8-2.2C37.6,7.3,36.9,7,36,7z"/>
	<path d="M41.8,2.6V1.8h2.6v13.5l1.5,0.1v0.8h-4.1v-0.8l1.5-0.1V2.7L41.8,2.6z"/>
	<path d="M47.4,2.6V1.8H50v13.5l1.5,0.1v0.8h-4.1v-0.8l1.5-0.1V2.7L47.4,2.6z"/>
	<path d="M57.7,16.4c-1.3,0-2.3-0.5-3.1-1.4c-0.8-0.9-1.2-2.1-1.2-3.5V11c0-1.4,0.4-2.6,1.2-3.6c0.8-0.9,1.8-1.4,3-1.4
		c1.2,0,2.2,0.4,2.9,1.2s1.1,1.8,1.1,3.1v0.9h-7.1v0.3c0,1.1,0.3,2.1,0.9,2.8c0.6,0.8,1.4,1.1,2.4,1.1c0.7,0,1.3-0.1,1.8-0.3
		c0.5-0.2,0.9-0.5,1.3-0.8l0.5,0.8c-0.4,0.4-0.9,0.7-1.4,0.9C59.2,16.3,58.5,16.4,57.7,16.4z M57.6,7c-0.8,0-1.5,0.3-2.1,0.9
		c-0.6,0.6-0.9,1.4-1,2.4l0,0h5.9V10c0-0.9-0.3-1.6-0.8-2.2C59.2,7.3,58.5,7,57.6,7z"/>
	<path d="M73.3,2.7c1.7,0,3,0.6,4.1,1.7c1.1,1.1,1.6,2.5,1.6,4.2v1.7c0,1.7-0.5,3.1-1.6,4.2s-2.4,1.6-4.1,1.6h-5.4v-0.8l1.5-0.1V3.7
		l-1.5-0.1V2.7h1.5H73.3z M70.5,3.7v11.6h2.8c1.3,0,2.4-0.5,3.3-1.4c0.9-0.9,1.3-2.1,1.3-3.5V8.6c0-1.4-0.4-2.6-1.3-3.5
		c-0.9-0.9-2-1.4-3.3-1.4H70.5z"/>
	<path d="M85.6,16.4c-1.3,0-2.3-0.5-3.1-1.4c-0.8-0.9-1.2-2.1-1.2-3.5V11c0-1.4,0.4-2.6,1.2-3.6c0.8-0.9,1.8-1.4,3-1.4
		c1.2,0,2.2,0.4,2.9,1.2s1.1,1.8,1.1,3.1v0.9h-7.1v0.3c0,1.1,0.3,2.1,0.9,2.8c0.6,0.8,1.4,1.1,2.4,1.1c0.7,0,1.3-0.1,1.8-0.3
		c0.5-0.2,0.9-0.5,1.3-0.8l0.5,0.8c-0.4,0.4-0.9,0.7-1.4,0.9C87.1,16.3,86.4,16.4,85.6,16.4z M85.4,7c-0.8,0-1.5,0.3-2.1,0.9
		c-0.6,0.6-0.9,1.4-1,2.4l0,0h5.9V10c0-0.9-0.3-1.6-0.8-2.2C87,7.3,86.3,7,85.4,7z"/>
	<path d="M101.9,7H101l-0.2-2.1c-0.4-0.4-0.8-0.8-1.4-1c-0.6-0.3-1.2-0.4-2-0.4c-1.5,0-2.7,0.5-3.6,1.6c-0.9,1.1-1.3,2.5-1.3,4.3
		v0.2c0,1.7,0.4,3.2,1.3,4.3c0.9,1.1,2,1.7,3.5,1.7c0.8,0,1.5-0.1,2.1-0.4c0.6-0.3,1.1-0.6,1.5-1L101,12h0.9v2.4
		c-0.4,0.6-1,1.1-1.8,1.5c-0.8,0.4-1.7,0.6-2.7,0.6c-1.7,0-3.1-0.6-4.2-1.9c-1.1-1.3-1.7-2.9-1.7-4.9V9.4c0-2,0.5-3.7,1.6-4.9
		c1.1-1.3,2.5-1.9,4.3-1.9c1,0,1.9,0.2,2.7,0.6c0.8,0.4,1.4,0.9,1.8,1.5V7z"/>
	<path d="M103.9,11.1c0-1.5,0.4-2.7,1.2-3.6S107,6,108.3,6c1.3,0,2.4,0.5,3.2,1.4c0.8,0.9,1.2,2.2,1.2,3.6v0.3
		c0,1.5-0.4,2.7-1.2,3.6c-0.8,0.9-1.9,1.4-3.2,1.4c-1.3,0-2.4-0.5-3.2-1.4c-0.8-0.9-1.2-2.2-1.2-3.6V11.1z M105,11.4
		c0,1.2,0.3,2.1,0.9,2.9c0.6,0.8,1.4,1.2,2.5,1.2c1,0,1.8-0.4,2.4-1.2c0.6-0.8,0.9-1.8,0.9-2.9v-0.3c0-1.1-0.3-2.1-0.9-2.9
		c-0.6-0.8-1.4-1.2-2.4-1.2s-1.9,0.4-2.4,1.2s-0.9,1.8-0.9,2.9V11.4z"/>
	<path d="M122,14.6c-0.3,0.6-0.7,1-1.3,1.4c-0.5,0.3-1.2,0.5-1.9,0.5c-1.1,0-1.9-0.4-2.5-1.1c-0.6-0.7-0.9-1.8-0.9-3.3V7.2L114.1,7
		V6.2h1.2h1.1v5.8c0,1.2,0.2,2.1,0.6,2.6c0.4,0.5,1,0.8,1.8,0.8c0.8,0,1.5-0.2,2-0.6c0.5-0.4,0.8-0.9,1.1-1.5V7.2L120.5,7V6.2h1.4
		h1.1v9.1l1.3,0.1v0.8h-2.3L122,14.6z"/>
</g>
</svg>
